<svg xmlns="http://www.w3.org/2000/svg" width="16.758" height="16.758" viewBox="0 0 16.758 16.758"><defs><style>.a{fill:#12161c;}</style></defs><g transform="translate(0)"><path class="a" d="M2.455,16.758H14.3A2.458,2.458,0,0,0,16.758,14.3V2.455A2.458,2.458,0,0,0,14.3,0H2.455A2.458,2.458,0,0,0,0,2.455V14.3A2.458,2.458,0,0,0,2.455,16.758ZM.982,2.455A1.475,1.475,0,0,1,2.455.982H14.3a1.475,1.475,0,0,1,1.473,1.473V14.3A1.475,1.475,0,0,1,14.3,15.776H2.455A1.475,1.475,0,0,1,.982,14.3Zm0,0"/><path class="a" d="M125.419,129.837A4.419,4.419,0,1,0,121,125.419,4.424,4.424,0,0,0,125.419,129.837Zm0-7.855a3.437,3.437,0,1,1-3.437,3.437A3.441,3.441,0,0,1,125.419,121.982Zm0,0" transform="translate(-117.04 -117.04)"/><path class="a" d="M362.473,63.946A1.473,1.473,0,1,0,361,62.473,1.475,1.475,0,0,0,362.473,63.946Zm0-1.964a.491.491,0,1,1-.491.491A.492.492,0,0,1,362.473,61.982Zm0,0" transform="translate(-349.184 -59.003)"/></g></svg>