<svg xmlns="http://www.w3.org/2000/svg" width="16.758" height="13.716" viewBox="0 0 16.758 13.716"><defs><style>.a{fill:#12161c;}</style></defs><path class="a" d="M16.758,1.832c-1.054.049-1.031.045-1.15.055L16.232.1s-1.949.717-2.443.845a3.91,3.91,0,0,0-4.6-.37A3.189,3.189,0,0,0,7.651,3.858,8.506,8.506,0,0,1,2.141.755L1.678.2,1.333.834A3.834,3.834,0,0,0,.925,3.415a3.708,3.708,0,0,0,.359,1.007l-.4-.154L.84,4.932a3.536,3.536,0,0,0,.6,2.1,3.737,3.737,0,0,0,.467.576l-.2-.031.25.759a3.691,3.691,0,0,0,1.9,2.2c-.885.376-1.6.615-2.775,1L0,11.891l.993.543a10.422,10.422,0,0,0,3.038,1.106c2.938.461,6.246.086,8.473-1.92a7.975,7.975,0,0,0,2.363-6.593,1.562,1.562,0,0,1,.292-1.017c.416-.555,1.6-2.173,1.6-2.177ZM14.374,3.421a2.544,2.544,0,0,0-.487,1.655,6.941,6.941,0,0,1-2.04,5.814c-1.732,1.56-4.526,2.172-7.665,1.68a7.6,7.6,0,0,1-1.642-.488A26.039,26.039,0,0,0,5.515,10.86l1.715-.812L5.336,9.927A2.678,2.678,0,0,1,3.21,8.715a3.4,3.4,0,0,0,.721-.12l1.806-.5L3.916,7.646A2.712,2.712,0,0,1,2.259,6.494,2.778,2.778,0,0,1,1.9,5.7a4.546,4.546,0,0,0,.739.118l1.685.167L2.989,4.945A2.811,2.811,0,0,1,1.924,1.983,9.769,9.769,0,0,0,8.808,4.946a5.813,5.813,0,0,0-.1-.833,2.254,2.254,0,0,1,.991-2.7,2.933,2.933,0,0,1,3.46.287.879.879,0,0,0,.806.216,6.786,6.786,0,0,0,.664-.2L14.2,2.924h.541l-.372.5Zm0,0" transform="translate(0 0)"/></svg>