<svg xmlns="http://www.w3.org/2000/svg" width="16.758" height="16.758" viewBox="0 0 16.758 16.758"><defs><style>.a{fill:#12161c;}</style></defs><g transform="translate(0)"><path class="a" d="M4.053,15.563a8.318,8.318,0,0,0,4.3,1.19,8.422,8.422,0,0,0,8.409-8.376A8.376,8.376,0,1,0,1.2,12.705L0,16.758ZM.988,8.376a7.359,7.359,0,1,1,3.4,6.24L4.2,14.5l-2.749.811.811-2.749-.121-.189A7.393,7.393,0,0,1,.988,8.376Zm0,0" transform="translate(0 -0.001)"/><path class="a" d="M121.242,96.465a7.4,7.4,0,0,0,5.935,5.935c.975.186,2.406.214,3.105-.486l.39-.39a1.042,1.042,0,0,0,0-1.474l-1.559-1.559a1.042,1.042,0,0,0-1.474,0l-.39.39a.693.693,0,0,1-.927,0l-1.555-1.62-.007-.007a.612.612,0,0,1,0-.865l.39-.39a1.041,1.041,0,0,0,0-1.474l-1.559-1.559a1.043,1.043,0,0,0-1.474,0l-.39.39h0a3.634,3.634,0,0,0-.486,3.105Zm1.18-2.411c.409-.4.387-.407.432-.407a.06.06,0,0,1,.043.018c1.643,1.651,1.577,1.554,1.577,1.6a.059.059,0,0,1-.018.043l-.39.39a1.592,1.592,0,0,0,0,2.249l1.556,1.621.007.007a1.674,1.674,0,0,0,2.318,0l.39-.39a.06.06,0,0,1,.085,0c1.643,1.651,1.577,1.554,1.577,1.6a.059.059,0,0,1-.018.043l-.39.39a2.9,2.9,0,0,1-2.227.216,6.418,6.418,0,0,1-5.154-5.154,2.9,2.9,0,0,1,.215-2.227Zm0,0" transform="translate(-117.163 -89.633)"/></g></svg>