<svg xmlns="http://www.w3.org/2000/svg" width="92.106" height="92.104" viewBox="0 0 92.106 92.104"><defs><style>.a{fill:#fff;}</style></defs><g transform="translate(0)"><g transform="translate(0.009 13.077)"><path class="a" d="M92.107,99.91a33.291,33.291,0,0,0-66.511,0H20.882l-4.452-7.18a1.535,1.535,0,0,0-1.3-.726H1.581a1.535,1.535,0,0,0-1.3,2.344l4.432,7.144L.277,108.639a1.535,1.535,0,0,0,1.3,2.344H15.125a1.535,1.535,0,0,0,1.3-.726l4.512-7.276H25.6a33.291,33.291,0,0,0,66.511-3.07Zm-77.837,8H4.335l3-4.835h9.93Zm-6.931-8-3-4.835H14.27l3,4.835Zm51.589,31.759A30.222,30.222,0,0,1,28.706,102.98h6.271a23.947,23.947,0,1,0,0-3.07H28.706a30.222,30.222,0,1,1,30.223,31.759Zm-.08-31.759H57.277a2.2,2.2,0,1,1,.045,3.115l-.045-.045h1.572a1.535,1.535,0,1,0,0-3.07Zm1.567,6.578a5.271,5.271,0,1,0-6.578-6.578H47.421a11.541,11.541,0,1,1,0,3.07h6.417A5.272,5.272,0,0,0,60.416,106.488Zm-.03,9.487A14.611,14.611,0,1,0,44.321,99.91H38.047a20.877,20.877,0,1,1,0,3.07h6.274A14.611,14.611,0,0,0,60.386,115.975Z" transform="translate(-0.046 -68.154)"/></g><g transform="translate(15.351 0)"><g transform="translate(0 0)"><rect class="a" width="12.28" height="3.07"/></g></g><g transform="translate(27.631 10.745)"><rect class="a" width="12.28" height="3.07"/></g><g transform="translate(9.21 0)"><g transform="translate(0 0)"><rect class="a" width="3.07" height="3.07"/></g></g><g transform="translate(6.14 29.166)"><rect class="a" width="12.28" height="3.07"/></g><g transform="translate(0 29.166)"><rect class="a" width="3.07" height="3.07"/></g><g transform="translate(12.28 62.938)"><rect class="a" width="9.21" height="3.07"/></g><g transform="translate(6.14 62.938)"><rect class="a" width="3.07" height="3.07"/></g><g transform="translate(30.701 76.753)"><rect class="a" width="3.07" height="3.07"/></g><g transform="translate(6.14 89.034)"><rect class="a" width="12.28" height="3.07"/></g><g transform="translate(0 89.034)"><rect class="a" width="3.07" height="3.07"/></g></g></svg>