<svg xmlns="http://www.w3.org/2000/svg" width="68.646" height="90.536" viewBox="0 0 68.646 90.536"><defs><style>.a{fill:#fff;}</style></defs><g transform="translate(8.484 8.502)"><path class="a" d="M147.274,50.861a25.782,25.782,0,0,0-31.987,38.823,1.427,1.427,0,0,0,2.252-1.753,22.929,22.929,0,0,1,28.448-34.523,1.427,1.427,0,1,0,1.287-2.547Z" transform="translate(-109.878 -48.082)"/></g><g transform="translate(17.897 21.893)"><path class="a" d="M202.485,124.59a1.427,1.427,0,0,0-2.547,1.286,22.929,22.929,0,0,1-34.526,28.443,1.427,1.427,0,1,0-1.752,2.252,25.783,25.783,0,0,0,38.825-31.982Z" transform="translate(-163.109 -123.806)"/></g><g transform="translate(48.937 14.607)"><g transform="translate(0)"><path class="a" d="M343.3,85.24c-.353-.4-.725-.8-1.1-1.174s-.774-.75-1.174-1.1a1.427,1.427,0,0,0-1.89,2.138c.356.315.708.646,1.046.983s.668.689.983,1.046a1.427,1.427,0,0,0,2.138-1.89Z" transform="translate(-338.647 -82.605)"/></g></g><g transform="translate(0 0)"><g transform="translate(0 0)"><path class="a" d="M129.83,36.853a4.842,4.842,0,0,0,0-5.06l-1.877-3.078a2.008,2.008,0,0,1-.269-1.356l.559-3.555a4.84,4.84,0,0,0-1.942-4.686L123.392,17a2.009,2.009,0,0,1-.77-1.15l-.847-3.5A4.84,4.84,0,0,0,118.2,8.77l-3.5-.847a2.008,2.008,0,0,1-1.15-.77l-2.116-2.91A4.839,4.839,0,0,0,106.742,2.3l-3.556.559a2.009,2.009,0,0,1-1.356-.269L98.751.714a4.841,4.841,0,0,0-5.06,0L90.613,2.591a2.008,2.008,0,0,1-1.356.269L85.7,2.3a4.84,4.84,0,0,0-4.685,1.942L78.9,7.151a2.009,2.009,0,0,1-1.151.77l-3.5.847a4.841,4.841,0,0,0-3.581,3.58l-.847,3.5A2.007,2.007,0,0,1,69.05,17l-2.91,2.116A4.839,4.839,0,0,0,64.2,23.8l.559,3.556a2.008,2.008,0,0,1-.269,1.356l-1.877,3.079a4.842,4.842,0,0,0,0,5.06l1.877,3.078a2.008,2.008,0,0,1,.269,1.356L64.2,44.842a4.839,4.839,0,0,0,1.942,4.686l2.909,2.116a2.008,2.008,0,0,1,.77,1.15l.847,3.5a4.84,4.84,0,0,0,3.58,3.581l1.462.354L65.814,82.3a1.427,1.427,0,0,0,1.471,2l7.961-.952,4.586,6.576a1.427,1.427,0,0,0,1.17.611c.044,0,.089,0,.134-.006a1.427,1.427,0,0,0,1.168-.837l10.1-22.542,1.28.781a4.841,4.841,0,0,0,5.06,0l1.327-.809,10.118,22.57a1.426,1.426,0,0,0,1.168.837c.045,0,.089.006.134.006a1.427,1.427,0,0,0,1.17-.611l4.586-6.576,7.961.952a1.427,1.427,0,0,0,1.471-2l-9.9-22.083,1.407-.34a4.841,4.841,0,0,0,3.581-3.58l.847-3.5a2.008,2.008,0,0,1,.77-1.15l2.91-2.116a4.839,4.839,0,0,0,1.942-4.685l-.559-3.556a2.008,2.008,0,0,1,.269-1.356Zm-49.1,49.374L77.1,81.015a1.426,1.426,0,0,0-1.34-.6l-6.309.754,9.015-20.11a2,2,0,0,1,.434.434l2.116,2.91a4.9,4.9,0,0,0,.673.75L76.943,75.737a1.427,1.427,0,1,0,2.6,1.167l4.728-10.547a4.883,4.883,0,0,0,1.425-.013l3.556-.559a2,2,0,0,1,.638,0Zm42.319-5.058-6.309-.754a1.426,1.426,0,0,0-1.34.6l-3.635,5.212L102.6,65.782a2.008,2.008,0,0,1,.582,0l3.555.559a4.886,4.886,0,0,0,1.482,0L112.954,76.9a1.427,1.427,0,1,0,2.6-1.167l-4.763-10.625a4.911,4.911,0,0,0,.631-.71l2.116-2.909a2,2,0,0,1,.48-.468Zm4.342-45.8-1.877,3.079a4.866,4.866,0,0,0-.651,3.285l.559,3.556a2,2,0,0,1-.8,1.934l-2.91,2.116a4.865,4.865,0,0,0-1.865,2.787l-.847,3.5a2,2,0,0,1-1.478,1.478l-3.5.847a4.865,4.865,0,0,0-2.787,1.865l-2.116,2.909a2,2,0,0,1-1.934.8l-3.555-.559a4.866,4.866,0,0,0-3.286.651L97.265,65.5a2,2,0,0,1-2.089,0L92.1,63.618a4.864,4.864,0,0,0-3.285-.651l-3.556.559a2,2,0,0,1-1.934-.8l-2.116-2.91a4.865,4.865,0,0,0-2.787-1.865l-3.5-.847a2,2,0,0,1-1.478-1.478l-.847-3.5a4.865,4.865,0,0,0-1.865-2.787L67.819,47.22a2,2,0,0,1-.8-1.934l.559-3.555a4.865,4.865,0,0,0-.651-3.285l-1.877-3.078a2,2,0,0,1,0-2.089L66.925,30.2a4.865,4.865,0,0,0,.651-3.285l-.559-3.556a2,2,0,0,1,.8-1.934l2.91-2.116a4.865,4.865,0,0,0,1.865-2.787l.847-3.5a2,2,0,0,1,1.478-1.478l3.5-.847a4.864,4.864,0,0,0,2.787-1.865L83.323,5.92a2,2,0,0,1,1.934-.8l3.555.559A4.863,4.863,0,0,0,92.1,5.027L95.176,3.15a2,2,0,0,1,2.089,0l3.079,1.877a4.863,4.863,0,0,0,3.285.652l3.556-.559a2,2,0,0,1,1.934.8l2.116,2.91a4.865,4.865,0,0,0,2.787,1.865l3.5.847A2,2,0,0,1,119,13.021l.847,3.5a4.865,4.865,0,0,0,1.865,2.787l2.909,2.116a2,2,0,0,1,.8,1.934l-.559,3.555a4.865,4.865,0,0,0,.651,3.285l1.877,3.078A2,2,0,0,1,127.394,35.367Z" transform="translate(-61.898 0)"/></g></g><g transform="translate(17.497 17.753)"><path class="a" d="M194.37,112.528a2.553,2.553,0,0,0-2.148-1.764l-8.585-1.018-3.621-7.85a2.578,2.578,0,0,0-4.682,0l-3.621,7.851-8.585,1.018a2.578,2.578,0,0,0-1.447,4.453l6.347,5.87-1.685,8.48a2.587,2.587,0,0,0,2.525,3.085,2.58,2.58,0,0,0,1.263-.333l7.544-4.223,7.544,4.223a2.578,2.578,0,0,0,3.788-2.752l-1.685-8.479,6.347-5.87A2.553,2.553,0,0,0,194.37,112.528Zm-9.572,7.006a1.427,1.427,0,0,0-.431,1.326l1.724,8.677-7.72-4.321a1.427,1.427,0,0,0-1.394,0l-7.72,4.321,1.724-8.677a1.426,1.426,0,0,0-.431-1.326l-6.5-6.007,8.786-1.042a1.427,1.427,0,0,0,1.128-.819l3.705-8.034,3.705,8.034a1.427,1.427,0,0,0,1.128.819l8.786,1.042Z" transform="translate(-160.849 -100.398)"/></g></svg>