<svg xmlns="http://www.w3.org/2000/svg" width="92.106" height="89.093" viewBox="0 0 92.106 89.093"><defs><style>.a{fill:#fff;}</style></defs><g transform="translate(0)"><path class="a" d="M48.83,62.62l-4.482,8.834,2.737,1.391,4.126-8.136,17.47-2.743a1.535,1.535,0,0,0,1.277-1.758L67.18,42.746l3.285-3.28L68.3,37.292,64.458,41.13a1.535,1.535,0,0,0-.431,1.328l2.659,16.715L49.954,61.8A1.535,1.535,0,0,0,48.83,62.62Z" transform="translate(20.659 16.042)"/><path class="a" d="M7.569,26.026,6.247,17.754l16.732-2.626a1.535,1.535,0,0,0,1.13-.821L29.364,3.938,26.626,2.547l-4.912,9.671L4.252,14.961a1.535,1.535,0,0,0-1.277,1.758l1.556,9.79Z" transform="translate(-1.486 -2.547)"/><path class="a" d="M0,0H3.07V3.108H0Z" transform="matrix(0.988, -0.157, 0.157, 0.988, 3.536, 27.046)"/><path class="a" d="M83.278,35.848l2.3-14.481A1.535,1.535,0,0,0,84.3,19.609L69.814,17.333,63.179,4.253a1.535,1.535,0,0,0-.893-.768,1.553,1.553,0,0,0-1.174.094l-13.06,6.685L34.991,3.581a1.535,1.535,0,0,0-2.068.672L26.288,17.331,11.8,19.608a1.535,1.535,0,0,0-1.277,1.758l2.3,14.481L2.449,46.208a1.535,1.535,0,0,0,0,2.174l10.374,10.36-2.3,14.481A1.535,1.535,0,0,0,11.8,74.98l14.487,2.276,6.637,13.08a1.535,1.535,0,0,0,.893.767,1.569,1.569,0,0,0,.474.074,1.55,1.55,0,0,0,.7-.167l13.06-6.685,13.06,6.683a1.535,1.535,0,0,0,2.068-.672l6.636-13.078L84.3,74.982a1.535,1.535,0,0,0,1.277-1.758l-2.3-14.481L93.653,48.382a1.535,1.535,0,0,0,0-2.174ZM80.553,57.119a1.535,1.535,0,0,0-.431,1.328l2.184,13.735-13.744,2.16a1.535,1.535,0,0,0-1.13.821L61.139,87.569l-12.387-6.34a1.535,1.535,0,0,0-1.4,0l-12.387,6.34L28.67,75.163a1.535,1.535,0,0,0-1.131-.821L13.794,72.186,15.98,58.451a1.535,1.535,0,0,0-.431-1.328L5.708,47.295l9.841-9.824a1.535,1.535,0,0,0,.431-1.328L13.8,22.4l13.744-2.16a1.535,1.535,0,0,0,1.13-.821L34.964,7.016l12.387,6.34a1.535,1.535,0,0,0,1.4,0l12.387-6.34,6.294,12.406a1.535,1.535,0,0,0,1.131.821L82.308,22.4,80.122,36.138a1.535,1.535,0,0,0,.431,1.328l9.841,9.829Z" transform="translate(-1.998 -2.084)"/><path class="a" d="M19,36h3.07v3.07H19Z" transform="translate(7.098 15.351)"/><path class="a" d="M61.05,29.35H47.235V21.675A7.684,7.684,0,0,0,39.56,14a1.535,1.535,0,0,0-1.489,1.162l-3.73,14.933A3.07,3.07,0,0,1,31.36,32.42H30.35V30.885a1.535,1.535,0,0,0-1.535-1.535H16.535A1.535,1.535,0,0,0,15,30.885v24.56a1.535,1.535,0,0,0,1.535,1.535h12.28a1.535,1.535,0,0,0,1.535-1.535V53.91H34.6A30.777,30.777,0,0,0,47.96,56.98H54.91a4.605,4.605,0,0,0,4.605-4.605,4.554,4.554,0,0,0-.614-2.258,4.562,4.562,0,0,0,1.813-5.6,4.545,4.545,0,0,0,2.792-6.685A4.6,4.6,0,0,0,61.05,29.35ZM27.28,53.91H18.07V32.42h9.21ZM59.515,41.63H51.84V44.7h4.605a1.535,1.535,0,1,1,0,3.07h-6.14v3.07H54.91a1.535,1.535,0,1,1,0,3.07H47.96a27.665,27.665,0,0,1-12.318-2.917,1.535,1.535,0,0,0-.686-.154H30.35V35.49h1.01a6.14,6.14,0,0,0,5.958-4.652l3.4-13.615a4.605,4.605,0,0,1,3.443,4.452v9.21A1.535,1.535,0,0,0,45.7,32.42H61.05a1.535,1.535,0,1,1,0,3.07H53.375v3.07h6.14a1.535,1.535,0,1,1,0,3.07Z" transform="translate(4.958 3.58)"/><path class="a" d="M28,45H40.28v3.07H28Z" transform="translate(11.913 20.166)"/><path class="a" d="M25,49H46.49v3.07H25Z" transform="translate(10.308 22.306)"/></g></svg>